<?xml version="1.0" encoding="UTF-8"?><!DOCTYPE svg PUBLIC "-//W3C//DTD SVG 1.1//EN" "http://www.w3.org/Graphics/SVG/1.1/DTD/svg11.dtd"><svg xmlns="http://www.w3.org/2000/svg"><symbol id="i-arrow-left" viewBox="0 0 20 20"><path d="M4.765 9.956c0-.058.015-.117.044-.175.027-.057.072-.116.13-.174l7.772-7.772c.06-.06.127-.102.204-.132.078-.03.146-.043.205-.043s.128.013.205.042c.08.03.146.073.205.132l.817.818c.06.06.104.117.132.175.028.058.043.117.043.176 0 .097-.015.174-.044.233-.03.06-.074.116-.133.175L7.804 9.957l6.544 6.604c.06.04.104.092.132.16.03.068.044.132.044.19 0 .097-.015.175-.044.233-.028.06-.073.117-.132.176l-.817.816c-.06.06-.125.103-.204.13-.077.03-.146.046-.204.046s-.127-.015-.205-.045c-.077-.028-.146-.07-.204-.13L4.94 10.363c-.057-.058-.102-.12-.13-.19-.03-.067-.045-.14-.045-.218z"/></symbol><symbol id="i-arrow-right" viewBox="0 0 20 20"><path d="M15.48 10.175c-.028.07-.073.132-.13.19l-7.773 7.772c-.06.06-.127.103-.205.13-.078.03-.146.046-.205.046-.058 0-.126-.015-.204-.045-.08-.028-.146-.07-.205-.13l-.818-.818c-.06-.06-.103-.116-.13-.176-.03-.06-.045-.137-.045-.233 0-.058.015-.12.044-.188.028-.07.072-.122.13-.16l6.544-6.605L5.94 3.412c-.058-.06-.102-.117-.13-.176-.03-.06-.044-.136-.044-.233 0-.06.015-.118.044-.176.028-.058.072-.117.13-.175l.82-.818c.058-.06.125-.102.204-.132.078-.03.146-.043.204-.043.06 0 .127.013.205.042.078.03.146.073.205.132l7.772 7.772c.058.058.103.117.13.175.03.06.045.12.045.176 0 .078-.015.15-.045.22z"/></symbol><symbol id="i-caret" viewBox="0 0 12 8"><path d="M5.958 7.297L.508 1.76 1.577.706l4.39 4.46L10.433.704l1.06 1.06"/></symbol><symbol id="i-close" viewBox="0 0 32 32"><path d="M17.374 16l14.34-14.34c.38-.378.38-.995 0-1.374-.38-.38-.996-.38-1.375 0L16 14.626 1.66.285c-.38-.38-.996-.38-1.375 0s-.38.996 0 1.375L14.625 16 .284 30.34c-.38.38-.38.996 0 1.375.19.19.44.284.688.284s.498-.096.69-.285l14.336-14.34 14.338 14.34c.19.19.44.284.69.284.248 0 .497-.096.688-.285.38-.38.38-.996 0-1.375L17.374 16z"/></symbol><symbol id="i-facebook" viewBox="0 0 32 32"><path d="M24 .64C22.08 0 17.76 0 17.76 0c-2.56 0-4.16.96-5.28 2.4S11.2 5.92 11.2 7.36V11.2H8V16h3.2v16h6.4V16h4.8l.8-4.8h-5.6V6.72c0-1.44 1.28-1.92 2.72-1.92 0 0 1.44.32 2.88.8L24 .64z"/></symbol><symbol id="i-instagram" viewBox="0 0 32 32"><path d="M28.295 13.474h-2.863c.168.842.337 1.684.337 2.526 0 5.39-4.38 9.768-9.77 9.768S6.233 21.388 6.233 16c0-.842.168-1.684.337-2.526H3.704v13.474c0 .674.505 1.18 1.18 1.18h22.23c.675 0 1.18-.506 1.18-1.18V13.474zm0-8.59c0-.674-.505-1.18-1.18-1.18h-3.704c-.673 0-1.178.506-1.178 1.18V8.59c0 .673.505 1.178 1.18 1.178h3.704c.674 0 1.18-.505 1.18-1.18V4.885zM16 9.768c-3.368 0-6.232 2.695-6.232 6.232s2.695 6.232 6.232 6.232S22.232 19.37 22.232 16 19.368 9.768 16 9.768M28.295 32H3.705C1.685 32 0 30.316 0 28.295V3.705C0 1.685 1.684 0 3.705 0h24.59C30.314 0 32 1.684 32 3.705v24.59C32 30.314 30.316 32 28.295 32"/></symbol><symbol id="i-plus" viewBox="0 0 32 32"><path d="M32 12.308H19.692V0h-7.384v12.308H0v7.384h12.308V32h7.384V19.692H32"/></symbol><symbol id="i-springload" viewBox="0 0 160 28"><path fill="#6E6B6E" d="M8.9 17.7c0-1-.9-1.1-2.9-1.3-2.6-.2-5.4-.7-5.4-4.1C.6 9.1 3.7 8 6.4 8c4 0 5.5 1.3 5.9 4.2l-3.6.4c-.2-1.2-.8-1.8-2.5-1.8-1.1 0-2.1.3-2.1 1.2s.8 1 2.7 1.2c2.7.2 5.5.6 5.5 4.1 0 3.3-2.9 4.4-6.2 4.4-4 0-5.9-1.4-6.1-4.3l3.6-.4c.1 1.3.9 1.9 2.6 1.9 1.7.1 2.7-.1 2.7-1.2m8.6 8.8h-3.4V11.8l-.2-3.6H17l.2 1.7c.7-1.4 2.4-2 4-2 4.1 0 6.1 2.4 6.1 7s-2.1 7-6.1 7c-2 0-3.2-.7-3.8-1.7v6.3h.1zm3.1-15.4c-1.8 0-2.9 1.1-3.2 2.2v3.1c.2 1.1 1.4 2.2 3.2 2.2 1.8 0 3.1-1.3 3.1-3.9 0-2.4-1.3-3.6-3.1-3.6m16.6.2c-2.6 0-4.1 1.6-4.5 2.8v7.4h-3.3v-9.7l-.2-3.6h3.1l.2 2.4c.7-1.6 2-2.9 4.8-2.9v3.6h-.1zm3.4-10.2c1.2 0 2.3 1 2.3 2.3 0 1.2-1 2.2-2.3 2.2-1.2 0-2.2-1-2.2-2.2-.1-1.2 1-2.3 2.2-2.3m-1.8 7.1h3.4v13.3h-3.4V8.2zm9 1.7c.8-1.2 2.1-2.1 4.1-2.1 3.1 0 4.9 1.6 4.9 4.7v9h-3.4V13c0-1.3-.7-2-2.1-2-1.8 0-3 1.2-3.3 2.2v8.2h-3.3v-9.6l-.1-3.6h3.1l.1 1.7zm20.7 9.5c-.6 1.2-2 1.7-3.8 1.7-3.9 0-6.1-2.1-6.1-6.7s2.3-6.7 6.2-6.7c1.9 0 3.2.7 3.9 2l.2-1.6H72l-.1 3.6v9.8c0 3.7-2.8 5.3-6.5 5.3-4.4 0-6.1-1.6-6.3-4.2l3.7-.6c.1 1 .6 1.9 2.6 1.9 1.9 0 3.2-.8 3.2-2.7l-.1-1.8zM65.2 18c1.8 0 3-1.1 3.2-2.3v-2.3c-.2-1.2-1.4-2.4-3.2-2.4-1.8 0-3.1.9-3.1 3.6 0 2.5 1.4 3.4 3.1 3.4m9.1-16.5h3.4v20.1h-3.4V1.5zm5.3 13.4c0-4.7 2.6-7 6.5-7 4 0 6.5 2.3 6.5 7s-2.6 7-6.5 7c-4 0-6.5-2.5-6.5-7m3.5 0c0 2.8 1.1 3.8 3 3.8s3-1 3-3.8-1.1-3.8-3-3.8-3 1-3 3.8m24.2-3.1v6.1l.2 3.6h-3.1l-.2-1.6c-.6 1.3-1.9 1.9-3.8 1.9-4 0-6.1-2.4-6.1-7s2.2-7 6.1-7c2 0 3.1.8 3.8 1.9l.2-1.4h3.1l-.2 3.5zm-3.4 1.5c-.2-1.1-1.4-2.2-3.2-2.2-1.8 0-3 1.2-3 3.8s1.2 3.8 3 3.8 3-1.1 3.2-2.2v-3.2zm18.6-11.8v16.4l.2 3.6h-3.1l-.2-1.6c-.6 1.2-1.9 1.9-3.9 1.9-4 0-6.1-2.4-6.1-7s2.2-7 6.1-7c1.8 0 3.1.6 3.7 1.7v-8h3.3zm-3.3 11.8c-.2-1.1-1.4-2.2-3.2-2.2-1.8 0-3 1.2-3 3.8s1.2 3.8 3 3.8 3-1.1 3.2-2.2v-3.2z"/><path fill="#A5CC8E" d="M154.7 8.8c-3.3 0-4.4-1-7.9-1-3 0-5.9 1.1-6.4 6.1-.4 3.7-2.2 5-4.2 5-1.6 0-2.7-.6-3.1-1.8 2-.7 3.1-2.3 3.1-4.5 0-2.8-1.8-4.8-4.9-4.8-3.1 0-4.9 2-4.9 4.8 0 2.3 1.2 4 3.3 4.7.8 3.3 3.2 4.5 6.4 4.5 3.8 0 6.7-2.3 7.3-6.8 1.6 1.7 3.6 2.1 5.5 2.1 5.7 0 9.8-4.3 11-9.4-1.8.8-3.3 1.1-5.2 1.1zm-23.5 5.9c-1.1 0-1.8-.8-1.8-1.9s.7-1.9 1.8-1.9c1.2 0 1.8.8 1.8 1.9-.1 1-.6 1.9-1.8 1.9z"/></symbol><symbol id="i-twitter" viewBox="0 0 32 32"><path d="M22.154 3c-3.63 0-6.566 2.94-6.566 6.564 0 .515.06 1.016.168 1.496C10.306 10.784 5.47 8.17 2.23 4.2c-.565.97-.89 2.098-.89 3.302 0 2.277 1.158 4.288 2.918 5.46-1.077-.03-2.088-.327-2.97-.815-.002.022-.002.05-.002.08 0 3.18 2.262 5.832 5.267 6.435-.553.15-1.132.227-1.732.227-.42 0-.833-.04-1.233-.118.835 2.608 3.262 4.505 6.132 4.56-2.247 1.76-5.08 2.807-8.154 2.807-.53 0-1.054-.03-1.566-.09 2.904 1.86 6.355 2.948 10.062 2.948 12.075 0 18.677-10 18.677-18.676 0-.285-.007-.566-.017-.846 1.283-.928 2.395-2.085 3.277-3.4-1.178.523-2.443.875-3.77 1.034 1.356-.813 2.396-2.1 2.887-3.633-1.27.754-2.672 1.3-4.17 1.592C25.75 3.795 24.04 3 22.153 3"/></symbol><symbol id="i-youtube" viewBox="0 0 32 32"><path d="M31.68 9.385s-.314-2.28-1.27-3.284c-1.22-1.317-2.58-1.324-3.208-1.4-4.477-.336-11.194-.336-11.194-.336h-.015s-6.717 0-11.194.335c-.628.075-1.99.08-3.21 1.4C.635 7.102.32 9.382.32 9.382S0 12.06 0 14.74v2.51c0 2.68.32 5.357.32 5.357s.314 2.28 1.27 3.284c1.22 1.32 2.82 1.278 3.533 1.416 2.556.252 10.877.33 10.877.33s6.724-.01 11.2-.345c.628-.076 1.99-.083 3.208-1.4.957-1.003 1.27-3.285 1.27-3.285S32 19.927 32 17.25v-2.512c0-2.677-.32-5.353-.32-5.353zM12.696 20.29v-9.295l8.646 4.665-8.646 4.63z"/></symbol></svg>