<?xml version="1.0" encoding="utf-8"?>
<!-- Generator: Adobe Illustrator 16.0.0, SVG Export Plug-In . SVG Version: 6.00 Build 0)  -->
<!DOCTYPE svg PUBLIC "-//W3C//DTD SVG 1.1//EN" "http://www.w3.org/Graphics/SVG/1.1/DTD/svg11.dtd">
<svg version="1.1" id="Layer_1" xmlns="http://www.w3.org/2000/svg" xmlns:xlink="http://www.w3.org/1999/xlink" x="0px" y="0px"
	 width="360px" height="756px" viewBox="-142.167 -300 360 756" enable-background="new -142.167 -300 360 756"
	 xml:space="preserve">
<path fill="#EFEFEF" d="M180.933-281.169c-29.001-11.217-82.321-18.741-143.306-18.741c-63.616,0-118.892,8.182-146.917,20.206
	c-1.61,0.653-3.178,1.376-4.697,2.177c-0.159,0.077-0.307,0.159-0.461,0.233c-0.07,0.04-0.147,0.078-0.22,0.115
	c-5.022,2.604-8.814,5.359-11.21,8.23c-9.893,9.499-16.066,22.858-16.066,37.667v635.055c0,28.842,23.37,52.227,52.2,52.227h255.203
	c28.832,0,52.198-23.385,52.198-52.228v-635.054C217.658-254.738,202.202-274.574,180.933-281.169z M197.833,362h-320v-566h320V362z
	"/>
<g>
	<path fill="#E4E5E5" d="M37.623-290.324c57.413,0,110.996,6.93,139.848,18.093l0.309,0.119l0.309,0.096
		c17.937,5.561,29.984,21.934,29.984,40.735v635.054c0,23.517-19.115,42.642-42.612,42.642H-89.743
		c-23.497,0-42.614-19.131-42.614-42.641v-635.055c0-11.708,4.66-22.631,13.117-30.756l0.379-0.365l0.342-0.403
		c0.866-1.043,3.101-3.185,8.357-5.914l0.337-0.17l0.262-0.136l0.03-0.014c1.245-0.651,2.539-1.25,4.021-1.854
		C-77.578-282.88-22.729-290.324,37.623-290.324 M37.623-299.91c-63.616,0-118.891,8.182-146.917,20.206
		c-1.605,0.653-3.168,1.376-4.692,2.177c-0.159,0.077-0.307,0.159-0.461,0.233c-0.075,0.04-0.147,0.078-0.22,0.115
		c-5.022,2.604-8.814,5.359-11.21,8.23c-9.893,9.499-16.066,22.858-16.066,37.667v635.055c0,28.842,23.365,52.227,52.2,52.227
		h255.203c28.832,0,52.198-23.385,52.198-52.228v-635.054c0-23.457-15.456-43.293-36.725-49.888
		C151.932-292.386,98.612-299.91,37.623-299.91L37.623-299.91z"/>
</g>
<path fill="#C4C4C4" d="M13.002-266.926h48.988c2.209,0,3.997,1.792,3.997,3.997c0,2.204-1.788,3.997-3.997,3.997H13.002
	c-2.209,0-4.001-1.793-4.001-3.997C9.001-265.133,10.793-266.926,13.002-266.926z"/>
<path fill="#C4C4C4" d="M-27.987-268.925c3.312,0,5.996,2.685,5.996,5.996s-2.684,5.996-5.996,5.996s-5.996-2.684-5.996-5.996
	S-31.299-268.925-27.987-268.925z"/>
<path fill="#C4C4C4" d="M-8.994-268.925c3.314,0,5.998,2.685,5.998,5.996s-2.688,5.996-5.998,5.996
	c-3.307,0-5.996-2.684-5.996-5.996C-14.994-266.24-12.305-268.925-8.994-268.925z"/>
<g id="Bottom_Bar">
	<rect x="-122.667" y="361.5" fill="#F4F4F4" width="321" height="42"/>
</g>
<g>
	<g>
		<g>
			<path fill-rule="evenodd" clip-rule="evenodd" fill="#C4C4C4" d="M118.542,389.599h22.554v-9.751h-22.554V389.599z
				 M120.37,381.675h18.896v6.096H120.37V381.675z M125.248,375.58v1.827h18.284v7.926h1.832v-9.753H125.248z"/>
		</g>
	</g>
	<g>
		<g>
			<path fill-rule="evenodd" clip-rule="evenodd" fill="#C4C4C4" d="M38.591,373.436l-15.093,5.832l-0.015,10.291h30.203v-10.281
				L38.591,373.436z M51.756,387.632H25.42l0.001-6.769l13.125-5.074l13.215,5.074L51.756,387.632z"/>
		</g>
	</g>
	<path fill-rule="evenodd" clip-rule="evenodd" fill="#C4C4C4" d="M-55.898,387.44l0.011,1.812h7.863c0,0,6.067-0.158,6.067-4.857
		c0-4.698-5.495-4.837-5.495-4.837h-17.794l3.312-4.213h-2.418l-3.677,5.125l3.677,4.528h2.418l-3.274-3.619l17.788,0.012
		c0,0,3.627,0.162,3.627,3.023c0,2.86-4.421,3.025-4.421,3.025H-55.898z"/>
</g>
</svg>
