<?xml version="1.0" encoding="UTF-8" standalone="no"?>
<svg width="64px" height="64px" viewBox="0 0 64 64" version="1.1" xmlns="http://www.w3.org/2000/svg" xmlns:xlink="http://www.w3.org/1999/xlink" xmlns:sketch="http://www.bohemiancoding.com/sketch/ns">
    <!-- Generator: Sketch 3.3.2 (12043) - http://www.bohemiancoding.com/sketch -->
    <title>drive</title>
    <desc>Created with Sketch.</desc>
    <defs></defs>
    <g id="Page-1" stroke="none" stroke-width="1" fill="none" fill-rule="evenodd" sketch:type="MSPage">
        <g id="drive" sketch:type="MSArtboardGroup">
            <path d="M4,46.5 L4,10.5070275 C4,9.68688376 4.7044383,9 5.57654565,9 L38.4234543,9 C39.3002331,9 40,9.68320742 40,10.5001152 L40,46.5 C40,47.3284271 40.6715729,48 41.5,48 C42.3284271,48 43,47.3284271 43,46.5 L43,10.5001152 C43,8.01006013 40.9412202,6 38.4234543,6 L5.57654565,6 C3.06429128,6 1,8.01284935 1,10.5070275 L1,46.5 C1,47.3284271 1.67157288,48 2.5,48 C3.32842712,48 4,47.3284271 4,46.5 L4,46.5 Z" id="Shape" fill="#D2D7DB" sketch:type="MSShapeGroup"></path>
            <path d="M4,47.497152 C4,46.6706776 4.67051571,46 5.49550699,46 L38.504493,46 C39.3303591,46 40,46.6699704 40,47.497152 L40,53.502848 C40,54.3293224 39.3294843,55 38.504493,55 L5.49550699,55 C4.66964093,55 4,54.3300296 4,53.502848 L4,47.497152 L4,47.497152 Z M1,47.497152 L1,53.502848 C1,55.9865536 3.01245625,58 5.49550699,58 L38.504493,58 C40.9865007,58 43,55.9860145 43,53.502848 L43,47.497152 C43,45.0134464 40.9875438,43 38.504493,43 L5.49550699,43 C3.01349931,43 1,45.0139855 1,47.497152 L1,47.497152 Z" id="Shape" fill="#00B4E5" sketch:type="MSShapeGroup"></path>
            <path d="M4,43.255006 L4,46.5 C4,47.3284271 3.32842712,48 2.5,48 C1.79689225,48 1.20677227,47.5162418 1.04432257,46.863408 C1.28111902,45.1850618 2.44462291,43.8040045 4,43.255006 L4,43.255006 L4,43.255006 Z" id="Shape-Copy" fill="#0097C4" sketch:type="MSShapeGroup"></path>
            <path d="M40,43.254804 L40,46.5 C40,47.3284271 40.6715729,48 41.5,48 C42.2031427,48 42.7932864,47.5161938 42.9557016,46.8633108 C42.719001,45.1845518 41.555801,43.8035972 40,43.254804 L40,43.254804 L40,43.254804 Z" id="Path" fill="#0097C4" sketch:type="MSShapeGroup"></path>
            <path d="M23.5,49 L9.5,49 C8.67157288,49 8,49.6715729 8,50.5 C8,51.3284271 8.67157288,52 9.5,52 L23.5,52 C24.3284271,52 25,51.3284271 25,50.5 C25,49.6715729 24.3284271,49 23.5,49 L23.5,49 Z" id="Shape" fill="#D2D7DB" sketch:type="MSShapeGroup"></path>
            <path d="M34.5,49 L33.5,49 C32.6715729,49 32,49.6715729 32,50.5 C32,51.3284271 32.6715729,52 33.5,52 L34.5,52 C35.3284271,52 36,51.3284271 36,50.5 C36,49.6715729 35.3284271,49 34.5,49 L34.5,49 Z" id="Shape" fill="#D2D7DB" sketch:type="MSShapeGroup"></path>
            <path d="M14.1319332,25 C14.8403996,21.0209836 18.3174056,18 22.5,18 C27.1944204,18 31,21.8055796 31,26.5 C31,31.1944204 27.1944204,35 22.5,35 C21.6715729,35 21,34.3284271 21,33.5 C21,32.6715729 21.6715729,32 22.5,32 C25.5375661,32 28,29.5375661 28,26.5 C28,23.4624339 25.5375661,21 22.5,21 C19.9824458,21 17.8599614,22.6914952 17.2070325,25 L17.9970707,25 C18.5509732,25 18.701592,25.3410378 18.3416768,25.7523694 L16.1583232,28.2476306 C15.7947413,28.6631527 15.201592,28.6589622 14.8416768,28.2476306 L12.6583232,25.7523694 C12.2947413,25.3368473 12.4378814,25 13.0029293,25 L14.1319332,25 L14.1319332,25 Z" id="Shape" fill="#00B4E5" sketch:type="MSShapeGroup"></path>
        </g>
    </g>
</svg>