<?xml version="1.0" encoding="utf-8"?>
<!-- Generator: Adobe Illustrator 16.0.0, SVG Export Plug-In . SVG Version: 6.00 Build 0)  -->
<!DOCTYPE svg PUBLIC "-//W3C//DTD SVG 1.1//EN" "http://www.w3.org/Graphics/SVG/1.1/DTD/svg11.dtd">
<svg version="1.1" id="Layer_1" xmlns="http://www.w3.org/2000/svg" xmlns:xlink="http://www.w3.org/1999/xlink" x="0px" y="0px"
	 width="820px" height="32px" viewBox="0 0 820 32" enable-background="new 0 0 820 32" xml:space="preserve">
<g>
	<g>
		<g>
			<g>
				<path fill-rule="evenodd" clip-rule="evenodd" fill="#D2D2D2" d="M809.975,0.012H10.024C4.487,0.012,0,4.499,0,10.036V32h820
					V11.039C820,5.502,815.513,0.012,809.975,0.012z"/>
			</g>
		</g>
	</g>
	<path fill-rule="evenodd" clip-rule="evenodd" fill="#E76D6B" d="M14.035,10.005c3.322,0,6.015,2.693,6.015,6.015
		c0,3.323-2.693,6.015-6.015,6.015c-3.322,0-6.014-2.692-6.014-6.015C8.021,12.698,10.713,10.005,14.035,10.005z"/>
	<path fill-rule="evenodd" clip-rule="evenodd" fill="#CA6866" d="M9.782,11.767c2.349-2.35,6.157-2.35,8.506-0.001
		c2.349,2.349,2.349,6.158,0.001,8.507"/>
	<path fill-rule="evenodd" clip-rule="evenodd" fill="#DFBC43" d="M34.084,10.005c3.322,0,6.015,2.693,6.015,6.015
		c0,3.323-2.693,6.015-6.015,6.015c-3.322,0-6.014-2.692-6.014-6.015C28.07,12.698,30.762,10.005,34.084,10.005z"/>
	<path fill-rule="evenodd" clip-rule="evenodd" fill="#C4A53B" d="M29.832,11.767c2.349-2.349,6.157-2.35,8.506,0
		c2.349,2.348,2.349,6.157,0,8.504"/>
	<path fill-rule="evenodd" clip-rule="evenodd" fill="#34D488" d="M54.134,10.005c3.322,0,6.015,2.693,6.015,6.015
		c0,3.323-2.693,6.015-6.015,6.015c-3.322,0-6.015-2.692-6.015-6.015C48.119,12.698,50.812,10.005,54.134,10.005z"/>
	<path fill-rule="evenodd" clip-rule="evenodd" fill="#2DBA77" d="M49.881,11.767c2.35-2.35,6.158-2.35,8.507,0
		c2.349,2.348,2.349,6.157,0,8.504"/>
</g>
</svg>
