<?xml version="1.0" encoding="UTF-8" standalone="no"?>
<svg width="24px" height="24px" viewBox="0 0 24 24" version="1.1" xmlns="http://www.w3.org/2000/svg" xmlns:xlink="http://www.w3.org/1999/xlink">
    <g id="slices" stroke="none" stroke-width="1" fill="none" fill-rule="evenodd">
        <g id="email" fill="#214A53">
            <path d="M16.9890565,15.7390565 C16.6969497,15.9051237 16.3585357,16 15.9972399,16 L7.00276013,16 C6.64220779,16 6.30390835,15.9048099 6.01166507,15.7383349 L6.01166507,15.7383349 L9.5,12.25 L10.0895968,12.8395968 C10.8649177,13.6149177 12.1349595,13.6150405 12.9182217,12.8317783 L13.5,12.25 L16.9890565,15.7390565 Z M17.7395182,14.9895182 C17.9053875,14.6984075 18,14.3615658 18,14.0026083 L18,8.9973917 C18,8.63894302 17.9050513,8.30227354 17.7388346,8.01116541 L14.25,11.5 L17.7395182,14.9895182 Z M5.26116541,14.9888346 C5.09494871,14.6977265 5,14.361057 5,14.0026083 L5,8.9973917 C5,8.63843424 5.09461253,8.30159253 5.26048178,8.01048178 L5.26048178,8.01048178 L8.75,11.5 L5.26116541,14.9888346 L5.26116541,14.9888346 Z M6.01094347,7.26094347 C6.3030503,7.09487629 6.64146427,7 7.00276013,7 L15.9972399,7 C16.3577922,7 16.6960917,7.09519009 16.9883349,7.26166507 L12.2050629,12.0449371 C11.8173354,12.4326646 11.1843326,12.4343326 10.7949371,12.0449371 L6.01094347,7.26094347 L6.01094347,7.26094347 Z M11.5,23 C17.8512746,23 23,17.8512746 23,11.5 C23,5.14872538 17.8512746,0 11.5,0 C5.14872538,0 0,5.14872538 0,11.5 C0,17.8512746 5.14872538,23 11.5,23 Z" id="Oval-75"></path>
        </g>
    </g>
</svg>