<?xml version="1.0" encoding="utf-8"?>
<!-- Generator: Adobe Illustrator 16.0.0, SVG Export Plug-In . SVG Version: 6.00 Build 0)  -->
<!DOCTYPE svg PUBLIC "-//W3C//DTD SVG 1.1//EN" "http://www.w3.org/Graphics/SVG/1.1/DTD/svg11.dtd">
<svg version="1.1" id="Layer_1" xmlns="http://www.w3.org/2000/svg" xmlns:xlink="http://www.w3.org/1999/xlink" x="0px" y="0px"
	 width="504px" height="394px" viewBox="0 0 504 394" enable-background="new 0 0 504 394" xml:space="preserve">
<g>
	<path fill="#222222" d="M47.741,0.663h20.551c0.668,0,1.209,0.541,1.209,1.209v7.257c0,0.668-0.541,1.209-1.209,1.209H47.741
		c-0.67,0-1.209-0.541-1.209-1.209V1.872C46.532,1.204,47.071,0.663,47.741,0.663z"/>
	<path fill="#222222" d="M75.116,0.663h1.551c0.668,0,1.209,0.541,1.209,1.209v7.257c0,0.668-0.541,1.209-1.209,1.209h-1.551
		c-0.67,0-1.209-0.541-1.209-1.209V1.872C73.907,1.204,74.446,0.663,75.116,0.663z"/>
	<path fill="#222222" d="M82.116,0.663h1.551c0.668,0,1.209,0.541,1.209,1.209v7.257c0,0.668-0.541,1.209-1.209,1.209h-1.551
		c-0.67,0-1.209-0.541-1.209-1.209V1.872C80.907,1.204,81.446,0.663,82.116,0.663z"/>
	<path fill="#252525" d="M479,2.5H25c-13.807,0-25,11.193-25,25v341c0,13.807,11.193,25,25,25h454c13.807,0,25-11.193,25-25v-341
		C504,13.693,492.807,2.5,479,2.5z M460,354.5H46v-312h414V354.5z"/>
	<g>
		<path fill="#222222" d="M479,4.5c12.683,0,23,10.318,23,23v341c0,12.684-10.317,23-23,23H25c-12.682,0-23-10.316-23-23v-341
			c0-12.682,10.318-23,23-23H479 M479,2.5H25c-13.807,0-25,11.193-25,25v341c0,13.807,11.193,25,25,25h454c13.807,0,25-11.193,25-25
			v-341C504,13.693,492.807,2.5,479,2.5L479,2.5z"/>
	</g>
	<path fill="#111111" d="M482.515,184.882c6.97,0,12.617,5.649,12.617,12.619c0,6.968-5.647,12.617-12.617,12.617
		c-6.966,0-12.613-5.649-12.613-12.617C469.899,190.531,475.549,184.882,482.515,184.882z"/>
	<g>
		<path fill="#2E2E2E" d="M485.319,192.859c1.012,0,1.835,0.824,1.835,1.837v5.606c0,1.014-0.823,1.838-1.835,1.838h-5.61
			c-1.012,0-1.834-0.824-1.834-1.838v-5.606c0-1.013,0.822-1.837,1.834-1.837H485.319 M485.319,192.359h-5.61
			c-1.287,0-2.334,1.049-2.334,2.337v5.606c0,1.293,1.047,2.338,2.334,2.338h5.61c1.291,0,2.335-1.045,2.335-2.338v-5.606
			C487.654,193.408,486.61,192.359,485.319,192.359L485.319,192.359z"/>
	</g>
	<path fill="#333333" d="M24.516,193.424c2.251,0,4.076,1.824,4.076,4.076s-1.825,4.076-4.076,4.076s-4.076-1.824-4.076-4.076
		S22.265,193.424,24.516,193.424z"/>
</g>
</svg>
