<?xml version="1.0" encoding="utf-8"?>
<!-- Generator: Adobe Illustrator 16.0.0, SVG Export Plug-In . SVG Version: 6.00 Build 0)  -->
<!DOCTYPE svg PUBLIC "-//W3C//DTD SVG 1.1//EN" "http://www.w3.org/Graphics/SVG/1.1/DTD/svg11.dtd">
<svg version="1.1" id="Layer_1" xmlns="http://www.w3.org/2000/svg" xmlns:xlink="http://www.w3.org/1999/xlink" x="0px" y="0px"
	 width="360px" height="756px" viewBox="0 0 360 756" enable-background="new 0 0 360 756" xml:space="preserve">
<path fill="#222222" d="M310,4.021H50c-29.136,0-50,22.854-50,52v648c0,29.141,21.393,52,50.529,52h258.993
	c29.141,0,50.479-22.859,50.479-52v-648C360,26.875,339.141,4.021,310,4.021z M340,662.021H20v-566h320V662.021z"/>
<path fill="#111111" d="M155.134,61.472h49.745c2.244,0,4.062,1.818,4.062,4.062c0,2.235-1.818,4.053-4.062,4.053h-49.745
	c-2.245,0-4.063-1.818-4.063-4.053C151.071,63.291,152.89,61.472,155.134,61.472z"/>
<path fill="#111111" d="M179.497,679.89c15.134,0,27.407,12.268,27.407,27.412c0,15.143-12.273,27.412-27.407,27.412
	c-15.139,0-27.413-12.271-27.413-27.412C152.084,692.157,164.363,679.89,179.497,679.89z"/>
<path fill="#111111" d="M179.497,33.048c3.362,0,6.095,2.725,6.095,6.089c0,3.36-2.732,6.089-6.095,6.089
	c-3.367,0-6.097-2.729-6.097-6.089C173.4,35.772,176.13,33.048,179.497,33.048z"/>
<path fill="#222222" d="M241.057-0.021h49.818c1.615,0,2.932,1.314,2.932,2.929V20.5c0,1.62-1.315,2.929-2.932,2.929h-49.818
	c-1.629,0-2.932-1.314-2.932-2.929V2.908C238.119,1.293,239.428-0.021,241.057-0.021z"/>
<g>
	<path fill="#222222" d="M185.592,698.56c1.459,0,2.646,1.188,2.646,2.652v12.188c0,1.463-1.188,2.65-2.646,2.65H173.4
		c-1.458,0-2.647-1.188-2.647-2.65v-12.188c0-1.465,1.188-2.652,2.647-2.652H185.592 M185.592,696.136H173.4
		c-2.801,0-5.071,2.282-5.071,5.076v12.188c0,2.803,2.271,5.076,5.071,5.076h12.191c2.8,0,5.07-2.273,5.07-5.076v-12.188
		C190.662,698.409,188.391,696.136,185.592,696.136L185.592,696.136z"/>
</g>
</svg>
