<?xml version="1.0" encoding="utf-8"?>
<!-- Generator: Adobe Illustrator 16.0.0, SVG Export Plug-In . SVG Version: 6.00 Build 0)  -->
<!DOCTYPE svg PUBLIC "-//W3C//DTD SVG 1.1//EN" "http://www.w3.org/Graphics/SVG/1.1/DTD/svg11.dtd">
<svg version="1.1" id="Layer_1" xmlns="http://www.w3.org/2000/svg" xmlns:xlink="http://www.w3.org/1999/xlink" x="0px" y="0px"
	 width="74px" height="54px" viewBox="0 0 74 54" enable-background="new 0 0 74 54" xml:space="preserve">
<g>
	<path fill="#FFFFFF" d="M13.838,18.771c-2.363,0-3.65,1.64-3.65,3.956c0,2.261,1.287,3.906,3.65,3.906c2.416,0,3.7-1.646,3.7-3.906
		C17.539,20.411,16.254,18.771,13.838,18.771z"/>
	<path fill="#FFFFFF" d="M0.004-1v56h74V-1H0.004z M50.285,32.029c-4.219,0-8.383-1.025-11.467-4.365
		c-1.233,9.095-7.298,13.775-14.958,13.775c-6.581,0-11.769-2.572-13.259-9.357c-4.37-1.182-6.839-4.778-6.839-9.458
		c0-5.755,3.7-9.867,10.075-9.867c6.422,0,10.126,4.112,10.126,9.867c0,4.523-2.314,8.021-6.479,9.306
		c1.029,2.567,3.187,3.647,6.429,3.647c4.214,0,7.862-2.673,8.735-10.279c1.184-10.179,7.044-12.542,13.265-12.542
		c7.042,0,9.455,1.952,16.24,1.952c3.752,0,7.043-0.668,10.591-2.058C70.227,23.191,61.848,32.029,50.285,32.029z"/>
</g>
</svg>
